<svg data-v-0dd9719b="" version="1.0" xmlns="http://www.w3.org/2000/svg" xmlns:xlink="http://www.w3.org/1999/xlink" width="100%" height="100%" viewBox="0 0 340.000000 250.000000" preserveAspectRatio="xMidYMid meet" color-interpolation-filters="sRGB" style="margin: auto;">   <g data-v-0dd9719b="" fill="#ed6c00" class="icon-text-wrapper icon-svg-group iconsvg" transform="translate(47.52000427246094,104.68511962890625)"><g class="iconsvg-imagesvg" transform="translate(0,0)"><g><rect fill="#ed6c00" fill-opacity="0" stroke-width="2" x="0" y="0" width="60" height="40.62976130015236" class="image-rect"></rect> <svg x="0" y="0" width="60" height="40.62976130015236" filtersec="colorsb1364220756" class="image-svg-svg primary" style="overflow: visible;"><svg version="1.1" id="cube" xmlns="http://www.w3.org/2000/svg" xmlns:xlink="http://www.w3.org/1999/xlink" x="0px" y="0px" viewBox="2.5999999046325684 5.849999904632568 504.8999938964844 341.8999938964844" enable-background="new 0 0 511 354.58" xml:space="preserve">
<g>
	<path fill="#ED6C00" d="M165.6,176.8c0-64.9,36.17-121.36,89.45-150.31c-24.22-13.16-51.99-20.64-81.5-20.64
		C79.14,5.85,2.6,82.39,2.6,176.8c0,94.41,76.54,170.95,170.95,170.95c29.51,0,57.28-7.48,81.5-20.64
		C201.77,298.16,165.6,241.7,165.6,176.8z"></path>
	<path fill="#440164" d="M336.55,5.85c-29.51,0-57.27,7.48-81.5,20.64c53.28,28.95,89.45,85.41,89.45,150.31
		c0,64.9-36.17,121.36-89.45,150.31c24.22,13.16,51.99,20.64,81.5,20.64c94.41,0,170.95-76.54,170.95-170.95
		C507.5,82.39,430.96,5.85,336.55,5.85z"></path>
</g>
</svg></svg> <!----></g></g> <g transform="translate(67,6.984879493713379)"><g data-gra="path-name" fill-rule="" class="tp-name iconsvg-namesvg"><g transform="scale(1)"><g><path d="M15.02-10.88L15.02-10.88Q16.18-10.07 16.88-8.79 17.58-7.51 17.58-6L17.58-6 17.58-5.94Q17.58-4.71 17.11-3.62 16.65-2.53 15.83-1.73 15.02-0.93 13.94-0.47 12.86 0 11.64 0L11.64 0 5.85 0 7.25-3.49 11.64-3.49Q12.66-3.49 13.37-4.21 14.09-4.92 14.09-5.94L14.09-5.94 14.09-6Q14.09-7.01 13.37-7.73 12.66-8.44 11.64-8.44L11.64-8.44 10.22-8.44 4.51-8.44 4.51-3.49 4.51 0 1.02 0 1.02-8.44 1.02-11.93 1.02-20.37 10.22-20.37Q11.44-20.37 12.53-19.91 13.62-19.44 14.42-18.63 15.22-17.81 15.69-16.73 16.15-15.66 16.15-14.43L16.15-14.43 16.15-14.38Q16.15-13.39 15.85-12.5 15.54-11.61 15.02-10.88ZM12.66-14.38L12.66-14.43Q12.66-15.45 11.95-16.17 11.23-16.88 10.22-16.88L10.22-16.88 4.51-16.88 4.51-11.93 10.22-11.93Q11.23-11.93 11.95-12.65 12.66-13.36 12.66-14.38L12.66-14.38ZM30.91-14.58L34.4-14.58 34.4 0 30.91 0 30.91-7.28Q30.91-9.02 29.68-10.24L29.68-10.24Q28.46-11.47 26.72-11.47L26.72-11.47Q25.87-11.47 25.1-11.15 24.33-10.83 23.75-10.24L23.75-10.24Q22.53-9.02 22.53-7.28L22.53-7.28Q22.53-5.56 23.75-4.34L23.75-4.34Q24.33-3.73 25.1-3.42 25.87-3.11 26.72-3.11L26.72-3.11Q27.59-3.11 28.29-3.41L28.29-3.41 29.54-0.29Q28.2 0.38 26.43 0.38L26.43 0.38Q24.82 0.38 23.47-0.22 22.12-0.81 21.13-1.86 20.14-2.91 19.59-4.31 19.03-5.7 19.03-7.28L19.03-7.28Q19.03-8.88 19.59-10.27 20.14-11.67 21.13-12.72 22.12-13.77 23.47-14.36 24.82-14.96 26.43-14.96L26.43-14.96Q27.85-14.96 28.96-14.52 30.06-14.09 30.91-13.42L30.91-13.42 30.91-14.58ZM44.41-14.93L44.41-14.93Q46.01-14.93 47.36-14.33 48.72-13.74 49.71-12.69 50.7-11.64 51.25-10.24 51.8-8.85 51.8-7.25L51.8-7.25Q51.8-5.68 51.25-4.28 50.7-2.88 49.71-1.83 48.72-0.79 47.36-0.19 46.01 0.41 44.41 0.41L44.41 0.41Q42.69 0.41 41.3-0.26L41.3-0.26 42.55-3.38Q43.25-3.08 44.12-3.08L44.12-3.08Q45.89-3.08 47.09-4.31L47.09-4.31Q48.31-5.53 48.31-7.25L48.31-7.25Q48.31-8.99 47.09-10.22L47.09-10.22Q45.87-11.44 44.12-11.44L44.12-11.44Q42.43-11.44 41.15-10.22L41.15-10.22Q39.93-8.99 39.93-7.25L39.93-7.25 39.93-1.14 39.93 0.03 36.44 0.03 36.44-20.37 39.93-20.37 39.93-13.39Q40.77-14.06 41.88-14.49 42.98-14.93 44.41-14.93ZM64.7-14.55L68.54-14.55 61.78 0 60.88 1.98Q60.07 3.75 58.44 4.8 56.81 5.85 54.83 5.85L54.83 5.85 53.29 5.85 54.16 2.36 55 2.36Q55.85 2.36 56.58 1.89 57.3 1.43 57.65 0.64L57.65 0.64 57.94 0 51.19-14.55 55.03-14.55 59.86-4.13 64.7-14.55ZM84.89-5.18L87.37-2.74Q85.91-1.28 83.99-0.45 82.07 0.38 79.86 0.38L79.86 0.38Q77.68 0.38 75.74-0.45 73.8-1.28 72.36-2.72 70.92-4.16 70.09-6.1 69.26-8.03 69.26-10.22L69.26-10.22Q69.26-12.4 70.09-14.33 70.92-16.27 72.36-17.71 73.8-19.15 75.74-19.98 77.68-20.81 79.86-20.81L79.86-20.81Q82.07-20.81 83.99-19.98 85.91-19.15 87.37-17.69L87.37-17.69 84.89-15.22Q83.87-16.24 82.59-16.78 81.31-17.32 79.86-17.32L79.86-17.32Q78.43-17.32 77.15-16.78 75.87-16.24 74.85-15.22L74.85-15.22Q73.83-14.2 73.3-12.92 72.76-11.64 72.76-10.22L72.76-10.22Q72.76-8.79 73.3-7.49 73.83-6.2 74.85-5.18L74.85-5.18Q75.87-4.16 77.15-3.64 78.43-3.11 79.86-3.11L79.86-3.11Q81.31-3.11 82.59-3.64 83.87-4.16 84.89-5.18L84.89-5.18ZM100.11-14.58L103.61-14.58 103.61 0 100.11 0 100.11-7.28Q100.11-9.02 98.89-10.24L98.89-10.24Q97.67-11.47 95.92-11.47L95.92-11.47Q95.08-11.47 94.31-11.15 93.54-10.83 92.95-10.24L92.95-10.24Q91.73-9.02 91.73-7.28L91.73-7.28Q91.73-5.56 92.95-4.34L92.95-4.34Q93.54-3.73 94.31-3.42 95.08-3.11 95.92-3.11L95.92-3.11Q96.8-3.11 97.49-3.41L97.49-3.41 98.75-0.29Q97.41 0.38 95.63 0.38L95.63 0.38Q94.03 0.38 92.68-0.22 91.32-0.81 90.33-1.86 89.35-2.91 88.79-4.31 88.24-5.7 88.24-7.28L88.24-7.28Q88.24-8.88 88.79-10.27 89.35-11.67 90.33-12.72 91.32-13.77 92.68-14.36 94.03-14.96 95.63-14.96L95.63-14.96Q97.06-14.96 98.16-14.52 99.27-14.09 100.11-13.42L100.11-13.42 100.11-14.58ZM109.14-13.45L109.14-13.45Q109.95-14.11 110.98-14.55 112.02-14.99 113.33-14.99L113.33-14.99 113.33-11.5Q111.58-11.5 110.36-10.27L110.36-10.27Q109.14-8.99 109.14-7.3L109.14-7.3 109.14 0 105.64 0 105.64-7.3 105.64-14.58 109.14-14.58 109.14-13.45ZM128.75-5.53L125.08-5.53 117.46-5.53Q117.75-4.86 118.3-4.34L118.3-4.34Q118.91-3.73 119.67-3.42 120.43-3.11 121.27-3.11L121.27-3.11Q122.46-3.11 123.4-3.67L123.4-3.67 127.03-2.21Q125.99-0.99 124.5-0.31 123.02 0.38 121.27 0.38L121.27 0.38Q119.67 0.38 118.27-0.22 116.88-0.81 115.83-1.86 114.78-2.91 114.18-4.31 113.59-5.7 113.59-7.28L113.59-7.28Q113.59-8.88 114.18-10.27 114.78-11.67 115.83-12.72 116.88-13.77 118.27-14.36 119.67-14.96 121.27-14.96L121.27-14.96Q122.87-14.96 124.27-14.36 125.67-13.77 126.71-12.72 127.76-11.67 128.36-10.27 128.95-8.88 128.95-7.28L128.95-7.28Q128.95-6.34 128.75-5.53L128.75-5.53ZM121.27-11.47L121.27-11.47Q119.58-11.47 118.3-10.24L118.3-10.24Q117.75-9.69 117.46-9.02L117.46-9.02 125.08-9.02Q124.79-9.69 124.24-10.24L124.24-10.24Q123.02-11.47 121.27-11.47ZM147.14-20.4L147.14-20.4 150.96-20.4 150.96-0.03 147.46-0.03 147.46-14.46 140.74-4.07 134.05-14.46 134.05-0.03 130.55-0.03 130.55-20.4 134.37-20.4 140.74-10.51 147.14-20.4ZM164.43-14.58L167.92-14.58 167.92 0 164.43 0 164.43-7.28Q164.43-9.02 163.21-10.24L163.21-10.24Q161.99-11.47 160.24-11.47L160.24-11.47Q159.4-11.47 158.62-11.15 157.85-10.83 157.27-10.24L157.27-10.24Q156.05-9.02 156.05-7.28L156.05-7.28Q156.05-5.56 157.27-4.34L157.27-4.34Q157.85-3.73 158.62-3.42 159.4-3.11 160.24-3.11L160.24-3.11Q161.11-3.11 161.81-3.41L161.81-3.41 163.06-0.29Q161.72 0.38 159.95 0.38L159.95 0.38Q158.35 0.38 156.99-0.22 155.64-0.81 154.65-1.86 153.66-2.91 153.11-4.31 152.56-5.7 152.56-7.28L152.56-7.28Q152.56-8.88 153.11-10.27 153.66-11.67 154.65-12.72 155.64-13.77 156.99-14.36 158.35-14.96 159.95-14.96L159.95-14.96Q161.37-14.96 162.48-14.52 163.59-14.09 164.43-13.42L164.43-13.42 164.43-14.58ZM173.45 0L173.45 0 169.96 0 169.96-20.37 173.45-20.37 173.45 0ZM178.98 0L178.98 0 175.49 0 175.49-20.37 178.98-20.37 178.98 0Z" transform="translate(-1.0199999809265137, 20.809999465942383)"></path></g> <!----> <!----> <!----> <!----> <!----> <!----> <!----></g></g> <!----></g></g><defs v-gra="od"></defs></svg>